<svg xmlns="http://www.w3.org/2000/svg" xmlns:xlink="http://www.w3.org/1999/xlink" viewBox="0 0 48 48" width="48px" height="48px">
    <g id="surface8286845">
        <path style=" stroke:none;fill-rule:nonzero;fill:rgb(100%,100%,100%);fill-opacity:1;" d="M 24 48 C 10.746094 48 0 37.253906 0 24 C 0 10.746094 10.746094 0 24 0 C 37.253906 0 48 10.746094 48 24 C 48 37.253906 37.253906 48 24 48 Z M 24 48 " />
        <path style=" stroke:none;fill-rule:nonzero;fill:rgb(72, 196, 53);fill-opacity:1;" d="M 29.734375 10.058594 L 40.382812 11.441406 L 31.613281 19.886719 Z M 18.265625 37.90625 L 7.617188 36.523438 L 16.386719 28.078125 Z M 18.265625 37.90625 " />
        <path style=" stroke:none;fill-rule:nonzero;fill:rgb(72, 196, 53);fill-opacity:1;" d="M 10.894531 23.980469 C 10.894531 16.742188 16.761719 10.878906 24 10.878906 C 24.839844 10.878906 25.65625 10.964844 26.449219 11.113281 L 27.019531 7.949219 C 26.066406 7.691406 25.035156 7.605469 24 7.605469 C 14.945312 7.605469 7.617188 14.933594 7.617188 23.984375 C 7.617188 27.953125 9 31.746094 11.585938 34.675781 L 14.074219 32.523438 C 12.097656 30.226562 10.894531 27.246094 10.894531 23.980469 Z M 36.671875 13.554688 L 34.097656 15.632812 C 35.976562 17.898438 37.105469 20.808594 37.105469 23.980469 C 37.105469 31.21875 31.238281 37.085938 24 37.085938 C 23.15625 37.085938 22.335938 37 21.535156 36.847656 L 20.984375 39.9375 C 22.015625 40.109375 23.050781 40.195312 24 40.195312 C 33.054688 40.195312 40.382812 32.867188 40.382812 23.816406 C 40.382812 20.195312 39.085938 16.484375 36.671875 13.554688 Z M 36.671875 13.554688 " />
    </g>
</svg>